<?xml version="1.0" standalone="no"?>
<!DOCTYPE svg PUBLIC "-//W3C//DTD SVG 20010904//EN"
 "http://www.w3.org/TR/2001/REC-SVG-20010904/DTD/svg10.dtd">
<svg version="1.0" xmlns="http://www.w3.org/2000/svg"
 width="1024.000000pt" height="1024.000000pt" viewBox="0 0 1024.000000 1024.000000"
 preserveAspectRatio="xMidYMid meet">

<g transform="translate(0.000000,1024.000000) scale(0.100000,-0.100000)"
fill="#000000" stroke="none">
<path d="M5045 9171 c-49 -21 -146 -63 -215 -93 -69 -31 -314 -137 -545 -238
-231 -100 -530 -231 -665 -290 -358 -157 -771 -338 -962 -420 -91 -40 -175
-82 -186 -94 -31 -34 -35 -60 -12 -89 20 -25 59 -42 350 -154 63 -24 121 -51
128 -60 9 -13 12 -95 12 -329 l0 -313 -40 -45 c-45 -53 -61 -101 -51 -148 10
-45 24 -69 55 -95 18 -16 26 -33 26 -57 0 -42 -28 -180 -74 -363 -42 -166 -46
-238 -15 -277 33 -42 83 -58 179 -59 94 0 139 15 180 58 37 40 32 128 -18 335
-44 181 -52 222 -54 292 -1 41 3 52 35 87 60 67 61 137 2 214 l-34 45 -2 271
c-2 189 1 275 9 283 8 8 23 8 55 -1 43 -12 48 -11 203 49 367 144 783 289
1024 359 299 86 650 159 799 167 l96 5 -55 -26 c-60 -29 -181 -66 -475 -146
-422 -114 -809 -239 -1120 -360 -265 -103 -285 -111 -285 -119 0 -7 145 -67
600 -248 256 -102 889 -360 1025 -419 107 -45 159 -60 185 -53 14 4 228 98
475 208 436 194 932 411 1395 612 573 249 757 331 780 348 36 27 47 65 28 94
-16 25 -198 102 -1003 425 -198 80 -553 224 -790 320 -236 97 -533 218 -660
269 -126 52 -243 94 -260 94 -16 0 -70 -18 -120 -39z"/>
<path d="M6530 7296 c-58 -24 -213 -92 -345 -151 -132 -58 -404 -177 -605
-263 -331 -143 -370 -157 -420 -156 -47 1 -108 23 -410 148 -356 148 -602 251
-888 373 -84 36 -156 63 -159 59 -8 -8 -27 -165 -43 -351 -6 -71 -13 -140 -15
-153 -2 -12 -9 -102 -16 -200 -18 -279 7 -456 96 -677 183 -454 661 -917 1125
-1091 41 -15 77 -29 79 -31 2 -1 -17 -47 -42 -100 -60 -128 -86 -233 -94 -370
-11 -210 31 -377 137 -533 49 -73 173 -189 246 -232 382 -222 926 -178 1337
108 156 110 355 334 447 507 l31 57 67 0 c328 0 569 191 619 488 14 83 14 101
0 183 -75 442 -611 639 -961 354 -70 -58 -150 -177 -178 -268 -32 -101 -32
-255 0 -348 32 -93 86 -179 161 -253 l63 -64 -58 -87 c-73 -109 -225 -270
-329 -348 -123 -92 -287 -164 -450 -198 -92 -20 -296 -17 -385 5 -196 47 -351
166 -428 326 -22 47 -45 109 -51 138 -27 131 -4 297 59 424 28 56 108 188 115
188 1 0 48 13 103 30 137 41 259 95 402 179 174 104 307 208 461 361 264 263
409 502 497 818 25 91 26 110 26 297 0 142 -8 278 -27 470 -39 382 -41 398
-52 401 -5 2 -57 -16 -115 -40z m-100 -916 c0 -37 -31 -180 -54 -248 -28 -80
-101 -229 -153 -311 -161 -251 -436 -507 -683 -635 -139 -72 -222 -96 -345
-103 -223 -12 -420 68 -660 269 -343 287 -579 666 -611 984 l-7 64 101 0 c179
0 415 -42 592 -105 164 -59 414 -199 520 -292 52 -45 70 -47 117 -16 200 136
258 172 363 224 210 105 460 173 687 188 122 8 133 6 133 -19z m765 -1194
c166 -44 281 -177 293 -336 24 -345 -400 -542 -656 -305 -185 171 -165 447 42
590 90 62 210 81 321 51z"/>
<path d="M7035 5051 c-135 -35 -211 -168 -171 -302 32 -110 118 -173 236 -173
247 1 330 328 113 446 -52 29 -130 41 -178 29z"/>
<path d="M3480 2670 l0 -560 125 0 125 0 0 367 0 367 91 -185 c50 -101 113
-230 140 -286 l50 -103 84 0 84 0 24 43 c13 23 75 148 138 279 l114 236 5
-356 5 -357 123 -3 122 -3 0 561 0 560 -147 0 -148 -1 -113 -232 c-62 -128
-132 -274 -155 -324 -23 -51 -44 -93 -47 -93 -3 1 -77 147 -164 325 l-160 325
-148 0 -148 0 0 -560z"/>
<path d="M4920 2670 l0 -560 385 0 385 0 0 110 0 110 -260 0 -260 0 0 120 0
120 58 1 c31 0 130 1 220 0 l162 0 0 107 0 107 -187 -3 c-104 -2 -203 0 -220
3 l-33 6 0 109 0 110 260 0 260 0 0 110 0 110 -385 0 -385 0 0 -560z"/>
<path d="M5860 2670 l0 -562 278 4 c268 4 279 5 344 30 195 74 311 200 354
385 21 91 14 245 -15 328 -47 131 -146 244 -268 304 -116 58 -155 64 -435 69
l-258 4 0 -562z m553 307 c71 -35 139 -111 167 -185 31 -81 25 -205 -13 -279
-67 -130 -172 -183 -362 -183 l-85 0 0 341 0 341 118 -4 c104 -3 125 -7 175
-31z"/>
<path d="M2573 1910 c-64 -15 -143 -62 -187 -111 -190 -211 -139 -554 99 -673
227 -113 488 -10 559 222 7 22 6 22 -87 22 l-95 0 -12 -31 c-8 -17 -31 -44
-52 -59 -116 -84 -281 -20 -323 124 -66 228 106 425 292 335 33 -16 52 -35 73
-73 l29 -51 91 3 92 3 -7 27 c-25 109 -119 212 -226 250 -66 23 -177 29 -246
12z"/>
<path d="M1656 1698 c-176 -474 -216 -584 -216 -595 0 -10 25 -13 94 -13 l95
0 19 53 c11 28 25 69 32 90 l12 38 146 -3 145 -3 30 -87 29 -88 94 0 c64 0 94
4 94 12 0 9 -104 298 -257 711 l-36 97 -101 0 -101 0 -79 -212z m198 -55 c8
-27 28 -85 45 -131 17 -46 31 -85 31 -88 0 -2 -43 -4 -96 -4 -88 0 -96 2 -89
18 4 9 26 70 49 134 22 65 42 118 43 118 1 0 9 -21 17 -47z"/>
<path d="M3329 1883 c-59 -152 -289 -777 -289 -784 0 -6 39 -9 96 -7 l97 3 31
88 31 87 141 0 142 0 29 -87 30 -88 88 -3 c49 -2 94 -1 101 2 8 3 -17 82 -81
253 -51 136 -118 319 -150 406 l-57 157 -99 0 c-99 0 -100 0 -110 -27z m157
-329 c24 -70 44 -128 44 -130 0 -2 -43 -4 -96 -4 -53 0 -94 4 -92 8 2 5 23 65
48 135 24 69 46 124 49 122 2 -2 23 -61 47 -131z"/>
<path d="M3943 1503 l2 -408 139 -3 c233 -4 328 19 428 107 92 82 141 229 120
364 -22 142 -95 243 -220 304 l-76 38 -198 3 -197 4 2 -409z m326 246 c113
-24 181 -116 181 -243 -1 -158 -81 -242 -242 -253 l-78 -6 0 257 0 256 45 0
c24 0 67 -5 94 -11z"/>
<path d="M4760 1500 l0 -410 270 0 270 0 0 80 0 80 -180 0 -180 0 0 95 0 95
145 0 145 0 0 75 0 75 -145 0 -145 0 0 85 0 85 181 2 181 3 3 73 2 72 -273 0
-274 0 0 -410z"/>
<path d="M5422 1503 l3 -408 88 -3 87 -3 1 248 0 248 97 -193 97 -193 48 3 49
3 96 187 97 188 3 -245 2 -245 90 0 90 0 0 410 0 410 -100 0 -100 0 -108 -219
c-59 -121 -109 -220 -112 -220 -3 0 -53 99 -112 220 l-108 219 -105 0 -105 0
2 -407z"/>
<path d="M6363 1903 c3 -5 68 -117 146 -250 l141 -243 0 -160 0 -161 93 3 92
3 2 163 3 162 124 209 c123 207 156 265 156 276 0 3 -44 5 -99 5 l-99 0 -75
-132 c-41 -73 -82 -146 -89 -162 l-15 -29 -89 161 -89 162 -103 0 c-57 0 -101
-3 -99 -7z"/>
<path d="M7450 1510 c0 -220 -1 -403 -2 -407 -4 -12 309 -15 371 -3 173 32
301 167 320 339 15 143 -16 249 -100 345 -90 102 -166 126 -411 126 l-178 0 0
-400z m329 239 c110 -23 181 -116 181 -237 0 -86 -16 -135 -61 -186 -45 -51
-112 -76 -205 -76 l-64 0 0 255 0 255 50 0 c27 0 72 -5 99 -11z"/>
<path d="M8200 1825 l0 -85 183 -2 184 -3 -198 -315 c-109 -173 -198 -318
-198 -323 -1 -4 158 -6 352 -5 l352 3 3 78 c2 57 0 77 -10 78 -7 1 -95 1 -195
0 -101 -1 -183 2 -183 6 0 5 11 24 23 43 20 30 350 561 371 598 6 9 -65 12
-338 12 l-346 0 0 -85z"/>
</g>
</svg>
